<?xml version="1.0" encoding="UTF-8" standalone="no"?><!DOCTYPE svg PUBLIC "-//W3C//DTD SVG 1.1//EN" "http://www.w3.org/Graphics/SVG/1.1/DTD/svg11.dtd"><!-- Generated by graphviz version 2.40.1 (20161225.0304)
 --><!-- Title: G Pages: 1 --><svg xmlns="http://www.w3.org/2000/svg" xmlns:xlink="http://www.w3.org/1999/xlink" width="965pt" height="470pt" viewBox="0.00 0.00 965.26 470.40">
<g id="graph0" class="graph" transform="scale(1 1) rotate(0) translate(4 466.4)">
<title>G</title>
<polygon fill="#ffffff" stroke="transparent" points="-4,4 -4,-466.4 961.259,-466.4 961.259,4 -4,4"/>
<g id="clust1" class="cluster">
<title>cluster_sidebar</title>
<polygon fill="none" stroke="#000000" points="8,-80 8,-454.4 270,-454.4 270,-80 8,-80"/>
<text text-anchor="middle" x="139" y="-437.8" font-family="Times,serif" font-size="14.00" fill="#000000">サイドバー</text>
</g>
<g id="clust2" class="cluster">
<title>cluster_coop</title>
<polygon fill="none" stroke="#000000" points="498,-8 498,-305.6 798,-305.6 798,-8 498,-8"/>
<text text-anchor="middle" x="648" y="-289" font-family="Times,serif" font-size="14.00" fill="#000000">事業者管理画面</text>
</g>
<g id="clust3" class="cluster">
<title>cluster_user</title>
<polygon fill="none" stroke="#000000" points="278,-80 278,-228.8 490,-228.8 490,-80 278,-80"/>
<text text-anchor="middle" x="384" y="-212.2" font-family="Times,serif" font-size="14.00" fill="#000000">利用者管理画面</text>
</g>
<!-- 管理者ログアウト画面 -->
<g id="node1" class="node">
<title>管理者ログアウト画面</title>
<ellipse fill="none" stroke="#000000" cx="155" cy="-106" rx="106.9372" ry="18"/>
<text text-anchor="middle" x="155" y="-101.8" font-family="Times,serif" font-size="14.00" fill="#000000">管理者ログアウト画面</text>
</g>
<!-- 管理者ドローン管理画面 -->
<g id="node2" class="node">
<title>管理者ドローン管理画面</title>
<ellipse fill="none" stroke="#000000" cx="139" cy="-403.6" rx="122.5886" ry="18"/>
<text text-anchor="middle" x="139" y="-399.4" font-family="Times,serif" font-size="14.00" fill="#000000">管理者ドローン管理画面</text>
</g>
<!-- 事業者管理画面 -->
<g id="node3" class="node">
<title>事業者管理画面</title>
<ellipse fill="none" stroke="#000000" cx="167" cy="-331.6" rx="83.3963" ry="18"/>
<text text-anchor="middle" x="167" y="-327.4" font-family="Times,serif" font-size="14.00" fill="#000000">事業者管理画面</text>
</g>
<!-- 管理者ドローン管理画面&#45;&gt;事業者管理画面 -->
<!-- 利用者管理画面 -->
<g id="node4" class="node">
<title>利用者管理画面</title>
<ellipse fill="none" stroke="#000000" cx="167" cy="-254.8" rx="80.1964" ry="18"/>
<text text-anchor="middle" x="167" y="-250.6" font-family="Times,serif" font-size="14.00" fill="#000000">利用者管理画面</text>
</g>
<!-- 事業者管理画面&#45;&gt;利用者管理画面 -->
<!-- 事業者情報詳細画面 -->
<g id="node6" class="node">
<title>事業者情報詳細画面</title>
<ellipse fill="none" stroke="#000000" cx="620" cy="-254.8" rx="101.6316" ry="18"/>
<text text-anchor="middle" x="620" y="-250.6" font-family="Times,serif" font-size="14.00" fill="#000000">事業者情報詳細画面</text>
</g>
<!-- 事業者管理画面&#45;&gt;事業者情報詳細画面 -->
<g id="edge14" class="edge">
<title>事業者管理画面-&gt;事業者情報詳細画面</title>
<path fill="none" stroke="#000000" d="M232.8701,-320.4326C299.4412,-309.1464 404.1536,-291.3938 487.8979,-277.1961"/>
<polygon fill="#000000" stroke="#000000" points="488.7284,-280.6053 498.0027,-275.483 487.5583,-273.7038 488.7284,-280.6053"/>
</g>
<!-- 宅配依頼一覧画面 -->
<g id="node5" class="node">
<title>宅配依頼一覧画面</title>
<ellipse fill="none" stroke="#000000" cx="155" cy="-178" rx="106.5784" ry="18"/>
<text text-anchor="middle" x="155" y="-173.8" font-family="Times,serif" font-size="14.00" fill="#000000">宅配依頼一覧画面</text>
</g>
<!-- 利用者管理画面&#45;&gt;宅配依頼一覧画面 -->
<!-- 利用者情報詳細画面 -->
<g id="node10" class="node">
<title>利用者情報詳細画面</title>
<ellipse fill="none" stroke="#000000" cx="384" cy="-178" rx="98.4313" ry="18"/>
<text text-anchor="middle" x="384" y="-173.8" font-family="Times,serif" font-size="14.00" fill="#000000">利用者情報詳細画面</text>
</g>
<!-- 利用者管理画面&#45;&gt;利用者情報詳細画面 -->
<g id="edge15" class="edge">
<title>利用者管理画面-&gt;利用者情報詳細画面</title>
<path fill="none" stroke="#000000" d="M226.1859,-242.589C239.2036,-239.4171 252.9907,-235.6897 268.2798,-230.6753"/>
<polygon fill="#000000" stroke="#000000" points="269.6531,-233.9054 278.0001,-227.3802 267.4057,-227.276 269.6531,-233.9054"/>
</g>
<!-- 宅配依頼一覧画面&#45;&gt;管理者ログアウト画面 -->
<!-- 事業者支払い情報詳細画面 -->
<g id="node7" class="node">
<title>事業者支払い情報詳細画面</title>
<ellipse fill="none" stroke="#000000" cx="640" cy="-178" rx="126.9964" ry="18"/>
<text text-anchor="middle" x="640" y="-173.8" font-family="Times,serif" font-size="14.00" fill="#000000">事業者支払い情報詳細画面</text>
</g>
<!-- 事業者情報詳細画面&#45;&gt;事業者支払い情報詳細画面 -->
<!-- 事業者ドローン情報詳細画面 -->
<g id="node8" class="node">
<title>事業者ドローン情報詳細画面</title>
<ellipse fill="none" stroke="#000000" cx="648" cy="-106" rx="142.4893" ry="18"/>
<text text-anchor="middle" x="648" y="-101.8" font-family="Times,serif" font-size="14.00" fill="#000000">事業者ドローン情報詳細画面</text>
</g>
<!-- 事業者支払い情報詳細画面&#45;&gt;事業者ドローン情報詳細画面 -->
<!-- 事業者分析画面 -->
<g id="node9" class="node">
<title>事業者分析画面</title>
<ellipse fill="none" stroke="#000000" cx="648" cy="-34" rx="79.8875" ry="18"/>
<text text-anchor="middle" x="648" y="-29.8" font-family="Times,serif" font-size="14.00" fill="#000000">事業者分析画面</text>
</g>
<!-- 事業者ドローン情報詳細画面&#45;&gt;事業者分析画面 -->
<!-- 利用者分析画面 -->
<g id="node11" class="node">
<title>利用者分析画面</title>
<ellipse fill="none" stroke="#000000" cx="384" cy="-106" rx="76.1874" ry="18"/>
<text text-anchor="middle" x="384" y="-101.8" font-family="Times,serif" font-size="14.00" fill="#000000">利用者分析画面</text>
</g>
<!-- 利用者情報詳細画面&#45;&gt;利用者分析画面 -->
<!-- 管理者ログイン画面 -->
<g id="node12" class="node">
<title>管理者ログイン画面</title>
<ellipse fill="none" stroke="#000000" cx="861" cy="-403.6" rx="96.0187" ry="18"/>
<text text-anchor="middle" x="861" y="-399.4" font-family="Times,serif" font-size="14.00" fill="#000000">管理者ログイン画面</text>
</g>
<!-- 管理者TOP -->
<g id="node13" class="node">
<title>管理者TOP</title>
<ellipse fill="none" stroke="#000000" cx="861" cy="-331.6" rx="58.4881" ry="18"/>
<text text-anchor="middle" x="861" y="-327.4" font-family="Times,serif" font-size="14.00" fill="#000000">管理者TOP</text>
</g>
<!-- 管理者ログイン画面&#45;&gt;管理者TOP -->
<g id="edge9" class="edge">
<title>管理者ログイン画面-&gt;管理者TOP</title>
<path fill="none" stroke="#000000" d="M855.0476,-385.4314C854.2856,-377.6125 854.0696,-368.2923 854.3995,-359.6221"/>
<polygon fill="#000000" stroke="#000000" points="857.9004,-359.7239 855.0727,-349.5134 850.9159,-359.2587 857.9004,-359.7239"/>
</g>
<!-- 管理者TOP&#45;&gt;管理者ログイン画面 -->
<g id="edge10" class="edge">
<title>管理者TOP-&gt;管理者ログイン画面</title>
<path fill="none" stroke="#000000" d="M866.9273,-349.5134C867.7012,-357.2993 867.9291,-366.61 867.6111,-375.2941"/>
<polygon fill="#000000" stroke="#000000" points="864.1082,-375.2254 866.9524,-385.4314 871.0935,-375.6794 864.1082,-375.2254"/>
</g>
<!-- サイドバー -->
<g id="node14" class="node">
<title>サイドバー</title>
<ellipse fill="none" stroke="#000000" cx="861" cy="-254.8" rx="54.8817" ry="18"/>
<text text-anchor="middle" x="861" y="-250.6" font-family="Times,serif" font-size="14.00" fill="#000000">サイドバー</text>
</g>
<!-- 管理者TOP&#45;&gt;サイドバー -->
<g id="edge11" class="edge">
<title>管理者TOP-&gt;サイドバー</title>
<path fill="none" stroke="#000000" d="M855.1601,-313.3995C854.2563,-304.3132 854.0256,-293.1176 854.4682,-282.9549"/>
<polygon fill="#000000" stroke="#000000" points="857.9673,-283.0896 855.1731,-272.8699 850.9843,-282.6015 857.9673,-283.0896"/>
</g>
<!-- サイドバー&#45;&gt;管理者TOP -->
<g id="edge12" class="edge">
<title>サイドバー-&gt;管理者TOP</title>
<path fill="none" stroke="#000000" d="M866.8269,-272.8699C867.7371,-281.9358 867.9742,-293.1262 867.5381,-303.2988"/>
<polygon fill="#000000" stroke="#000000" points="864.0379,-303.1819 866.8399,-313.3995 871.0213,-303.6647 864.0379,-303.1819"/>
</g>
<!-- サイドバー&#45;&gt;サイドバー -->
<g id="edge13" class="edge">
<title>サイドバー-&gt;サイドバー</title>
<path fill="none" stroke="#000000" d="M897.0282,-268.462C916.3437,-270.7837 933.9408,-266.2297 933.9408,-254.8 933.9408,-245.4241 922.0995,-240.6749 907.1819,-240.5524"/>
<polygon fill="#000000" stroke="#000000" points="906.8101,-237.068 897.0282,-241.138 907.2131,-244.0564 906.8101,-237.068"/>
</g>
</g>
</svg>