<?xml version="1.0" encoding="UTF-8" standalone="no"?><!DOCTYPE svg PUBLIC "-//W3C//DTD SVG 1.1//EN" "http://www.w3.org/Graphics/SVG/1.1/DTD/svg11.dtd"><!-- Generated by graphviz version 2.40.1 (20161225.0304)
 --><!-- Title: G Pages: 1 --><svg xmlns="http://www.w3.org/2000/svg" xmlns:xlink="http://www.w3.org/1999/xlink" width="1112pt" height="470pt" viewBox="0.00 0.00 1112.49 470.40">
<g id="graph0" class="graph" transform="scale(1 1) rotate(0) translate(4 466.4)">
<title>G</title>
<polygon fill="#ffffff" stroke="transparent" points="-4,4 -4,-466.4 1108.4933,-466.4 1108.4933,4 -4,4"/>
<g id="clust1" class="cluster">
<title>cluster_sidebar</title>
<polygon fill="none" stroke="#000000" points="8,-80 8,-454.4 240,-454.4 240,-80 8,-80"/>
<text text-anchor="middle" x="124" y="-437.8" font-family="Times,serif" font-size="14.00" fill="#000000">サイドバー</text>
</g>
<g id="clust2" class="cluster">
<title>cluster_child</title>
<polygon fill="none" stroke="#000000" points="248,-8 248,-156.8 492,-156.8 492,-8 248,-8"/>
<text text-anchor="middle" x="370" y="-140.2" font-family="Times,serif" font-size="14.00" fill="#000000">子アカウント管理画面</text>
</g>
<g id="clust3" class="cluster">
<title>cluster_drone</title>
<polygon fill="none" stroke="#000000" points="500,-80 500,-233.6 766,-233.6 766,-80 500,-80"/>
<text text-anchor="middle" x="633" y="-217" font-family="Times,serif" font-size="14.00" fill="#000000">ドローン管理画面</text>
</g>
<!-- 事業者ログアウト画面 -->
<g id="node1" class="node">
<title>事業者ログアウト画面</title>
<ellipse fill="none" stroke="#000000" cx="124" cy="-106" rx="108.1029" ry="18"/>
<text text-anchor="middle" x="124" y="-101.8" font-family="Times,serif" font-size="14.00" fill="#000000">事業者ログアウト画面</text>
</g>
<!-- 事業者情報編集画面 -->
<g id="node2" class="node">
<title>事業者情報編集画面</title>
<ellipse fill="none" stroke="#000000" cx="125" cy="-403.6" rx="104.5585" ry="18"/>
<text text-anchor="middle" x="125" y="-399.4" font-family="Times,serif" font-size="14.00" fill="#000000">事業者情報編集画面</text>
</g>
<!-- 依頼一覧画面 -->
<g id="node3" class="node">
<title>依頼一覧画面</title>
<ellipse fill="none" stroke="#000000" cx="125" cy="-331.6" rx="84.5853" ry="18"/>
<text text-anchor="middle" x="125" y="-327.4" font-family="Times,serif" font-size="14.00" fill="#000000">依頼一覧画面</text>
</g>
<!-- 事業者情報編集画面&#45;&gt;依頼一覧画面 -->
<!-- ドローン管理画面 -->
<g id="node4" class="node">
<title>ドローン管理画面</title>
<ellipse fill="none" stroke="#000000" cx="125" cy="-259.6" rx="93.6528" ry="18"/>
<text text-anchor="middle" x="125" y="-255.4" font-family="Times,serif" font-size="14.00" fill="#000000">ドローン管理画面</text>
</g>
<!-- 依頼一覧画面&#45;&gt;ドローン管理画面 -->
<!-- 子アカウント管理画面 -->
<g id="node5" class="node">
<title>子アカウント管理画面</title>
<ellipse fill="none" stroke="#000000" cx="124" cy="-182.8" rx="108.1241" ry="18"/>
<text text-anchor="middle" x="124" y="-178.6" font-family="Times,serif" font-size="14.00" fill="#000000">子アカウント管理画面</text>
</g>
<!-- ドローン管理画面&#45;&gt;子アカウント管理画面 -->
<!-- 使用ドローン登録画面 -->
<g id="node8" class="node">
<title>使用ドローン登録画面</title>
<ellipse fill="none" stroke="#000000" cx="633" cy="-182.8" rx="125.4447" ry="18"/>
<text text-anchor="middle" x="633" y="-178.6" font-family="Times,serif" font-size="14.00" fill="#000000">使用ドローン登録画面</text>
</g>
<!-- ドローン管理画面&#45;&gt;使用ドローン登録画面 -->
<g id="edge15" class="edge">
<title>ドローン管理画面-&gt;使用ドローン登録画面</title>
<path fill="none" stroke="#000000" d="M198.5961,-248.4737C274.6121,-236.9815 395.1828,-218.7535 490.0337,-204.4138"/>
<polygon fill="#000000" stroke="#000000" points="490.6396,-207.8621 500.0041,-202.9065 489.5932,-200.9407 490.6396,-207.8621"/>
</g>
<!-- 子アカウント管理画面&#45;&gt;事業者ログアウト画面 -->
<!-- 子アカウント一覧画面 -->
<g id="node6" class="node">
<title>子アカウント一覧画面</title>
<ellipse fill="none" stroke="#000000" cx="370" cy="-106" rx="113.8432" ry="18"/>
<text text-anchor="middle" x="370" y="-101.8" font-family="Times,serif" font-size="14.00" fill="#000000">子アカウント一覧画面</text>
</g>
<!-- 子アカウント管理画面&#45;&gt;子アカウント一覧画面 -->
<g id="edge14" class="edge">
<title>子アカウント管理画面-&gt;子アカウント一覧画面</title>
<path fill="none" stroke="#000000" d="M195.9013,-169.3049C209.125,-166.3457 222.8829,-162.9558 238.2313,-158.4819"/>
<polygon fill="#000000" stroke="#000000" points="239.4303,-161.7763 248.0028,-155.5503 237.4188,-155.0716 239.4303,-161.7763"/>
</g>
<!-- 子アカウント発行画面 -->
<g id="node7" class="node">
<title>子アカウント発行画面</title>
<ellipse fill="none" stroke="#000000" cx="370" cy="-34" rx="110.9314" ry="18"/>
<text text-anchor="middle" x="370" y="-29.8" font-family="Times,serif" font-size="14.00" fill="#000000">子アカウント発行画面</text>
</g>
<!-- 子アカウント一覧画面&#45;&gt;子アカウント発行画面 -->
<!-- ドローン貸与申請画面 -->
<g id="node9" class="node">
<title>ドローン貸与申請画面</title>
<ellipse fill="none" stroke="#000000" cx="633" cy="-106" rx="120.2428" ry="18"/>
<text text-anchor="middle" x="633" y="-101.8" font-family="Times,serif" font-size="14.00" fill="#000000">ドローン貸与申請画面</text>
</g>
<!-- 使用ドローン登録画面&#45;&gt;ドローン貸与申請画面 -->
<!-- 事業者登録申請画面 -->
<g id="node10" class="node">
<title>事業者登録申請画面</title>
<ellipse fill="none" stroke="#000000" cx="831" cy="-403.6" rx="111.7565" ry="18"/>
<text text-anchor="middle" x="831" y="-399.4" font-family="Times,serif" font-size="14.00" fill="#000000">事業者登録申請画面</text>
</g>
<!-- 事業者ログイン画面 -->
<g id="node11" class="node">
<title>事業者ログイン画面</title>
<ellipse fill="none" stroke="#000000" cx="831" cy="-331.6" rx="97.6835" ry="18"/>
<text text-anchor="middle" x="831" y="-327.4" font-family="Times,serif" font-size="14.00" fill="#000000">事業者ログイン画面</text>
</g>
<!-- 事業者登録申請画面&#45;&gt;事業者ログイン画面 -->
<g id="edge7" class="edge">
<title>事業者登録申請画面-&gt;事業者ログイン画面</title>
<path fill="none" stroke="#000000" d="M825.0476,-385.4314C824.2972,-377.731 824.0763,-368.5743 824.3849,-360.0166"/>
<polygon fill="#000000" stroke="#000000" points="827.8792,-360.2161 825.024,-350.0133 820.8935,-359.7697 827.8792,-360.2161"/>
</g>
<!-- 事業者ログイン画面&#45;&gt;事業者登録申請画面 -->
<g id="edge9" class="edge">
<title>事業者ログイン画面-&gt;事業者登録申請画面</title>
<path fill="none" stroke="#000000" d="M836.976,-350.0133C837.7071,-357.6593 837.9203,-366.7084 837.6155,-375.1726"/>
<polygon fill="#000000" stroke="#000000" points="834.1048,-375.2264 836.9524,-385.4314 841.0902,-375.678 834.1048,-375.2264"/>
</g>
<!-- 事業者TOP -->
<g id="node12" class="node">
<title>事業者TOP</title>
<ellipse fill="none" stroke="#000000" cx="831" cy="-259.6" rx="59.6524" ry="18"/>
<text text-anchor="middle" x="831" y="-255.4" font-family="Times,serif" font-size="14.00" fill="#000000">事業者TOP</text>
</g>
<!-- 事業者ログイン画面&#45;&gt;事業者TOP -->
<g id="edge8" class="edge">
<title>事業者ログイン画面-&gt;事業者TOP</title>
<path fill="none" stroke="#000000" d="M831,-313.4314C831,-305.731 831,-296.5743 831,-288.0166"/>
<polygon fill="#000000" stroke="#000000" points="834.5001,-288.0132 831,-278.0133 827.5001,-288.0133 834.5001,-288.0132"/>
</g>
<!-- サイドバー -->
<g id="node13" class="node">
<title>サイドバー</title>
<ellipse fill="none" stroke="#000000" cx="831" cy="-182.8" rx="54.8817" ry="18"/>
<text text-anchor="middle" x="831" y="-178.6" font-family="Times,serif" font-size="14.00" fill="#000000">サイドバー</text>
</g>
<!-- 事業者TOP&#45;&gt;サイドバー -->
<g id="edge10" class="edge">
<title>事業者TOP-&gt;サイドバー</title>
<path fill="none" stroke="#000000" d="M825.1601,-241.3995C824.2563,-232.3132 824.0256,-221.1176 824.4682,-210.9549"/>
<polygon fill="#000000" stroke="#000000" points="827.9673,-211.0896 825.1731,-200.8699 820.9843,-210.6015 827.9673,-211.0896"/>
</g>
<!-- 事業者退会画面 -->
<g id="node14" class="node">
<title>事業者退会画面</title>
<ellipse fill="none" stroke="#000000" cx="1013" cy="-182.8" rx="91.4867" ry="18"/>
<text text-anchor="middle" x="1013" y="-178.6" font-family="Times,serif" font-size="14.00" fill="#000000">事業者退会画面</text>
</g>
<!-- 事業者TOP&#45;&gt;事業者退会画面 -->
<g id="edge11" class="edge">
<title>事業者TOP-&gt;事業者退会画面</title>
<path fill="none" stroke="#000000" d="M874.4542,-247.2709C887.04,-243.3121 900.6989,-238.6354 913,-233.6 933.4106,-225.245 955.3344,-214.3397 973.4374,-204.7759"/>
<polygon fill="#000000" stroke="#000000" points="975.3579,-207.718 982.5276,-199.9176 972.0584,-201.5445 975.3579,-207.718"/>
</g>
<!-- サイドバー&#45;&gt;事業者TOP -->
<g id="edge12" class="edge">
<title>サイドバー-&gt;事業者TOP</title>
<path fill="none" stroke="#000000" d="M836.8269,-200.8699C837.7371,-209.9358 837.9742,-221.1262 837.5381,-231.2988"/>
<polygon fill="#000000" stroke="#000000" points="834.0379,-231.1819 836.8399,-241.3995 841.0213,-231.6647 834.0379,-231.1819"/>
</g>
<!-- サイドバー&#45;&gt;サイドバー -->
<g id="edge13" class="edge">
<title>サイドバー-&gt;サイドバー</title>
<path fill="none" stroke="#000000" d="M867.0282,-196.462C886.3437,-198.7837 903.9408,-194.2297 903.9408,-182.8 903.9408,-173.4241 892.0995,-168.6749 877.1819,-168.5524"/>
<polygon fill="#000000" stroke="#000000" points="876.8101,-165.068 867.0282,-169.138 877.2131,-172.0564 876.8101,-165.068"/>
</g>
</g>
</svg>