<?xml version="1.0" encoding="UTF-8" standalone="no"?><!DOCTYPE svg PUBLIC "-//W3C//DTD SVG 1.1//EN" "http://www.w3.org/Graphics/SVG/1.1/DTD/svg11.dtd"><!-- Generated by graphviz version 2.40.1 (20161225.0304)
 --><!-- Title: G Pages: 1 --><svg xmlns="http://www.w3.org/2000/svg" xmlns:xlink="http://www.w3.org/1999/xlink" width="604pt" height="461pt" viewBox="0.00 0.00 604.14 460.80">
<g id="graph0" class="graph" transform="scale(1 1) rotate(0) translate(4 456.8)">
<title>G</title>
<polygon fill="#ffffff" stroke="transparent" points="-4,4 -4,-456.8 600.1433,-456.8 600.1433,4 -4,4"/>
<g id="clust1" class="cluster">
<title>cluster_sidebar</title>
<polygon fill="none" stroke="#000000" points="8,-8 8,-444.8 238,-444.8 238,-8 8,-8"/>
<text text-anchor="middle" x="123" y="-428.2" font-family="Times,serif" font-size="14.00" fill="#000000">サイドバー</text>
</g>
<!-- 利用者会員情報編集 -->
<g id="node1" class="node">
<title>利用者会員情報編集</title>
<ellipse fill="none" stroke="#000000" cx="123" cy="-394" rx="99.6742" ry="18"/>
<text text-anchor="middle" x="123" y="-389.8" font-family="Times,serif" font-size="14.00" fill="#000000">利用者会員情報編集</text>
</g>
<!-- 宅配場所登録画面 -->
<g id="node2" class="node">
<title>宅配場所登録画面</title>
<ellipse fill="none" stroke="#000000" cx="123" cy="-322" rx="95.0216" ry="18"/>
<text text-anchor="middle" x="123" y="-317.8" font-family="Times,serif" font-size="14.00" fill="#000000">宅配場所登録画面</text>
</g>
<!-- 利用者会員情報編集&#45;&gt;宅配場所登録画面 -->
<!-- 宅配依頼画面 -->
<g id="node3" class="node">
<title>宅配依頼画面</title>
<ellipse fill="none" stroke="#000000" cx="123" cy="-250" rx="83.3791" ry="18"/>
<text text-anchor="middle" x="123" y="-245.8" font-family="Times,serif" font-size="14.00" fill="#000000">宅配依頼画面</text>
</g>
<!-- 宅配場所登録画面&#45;&gt;宅配依頼画面 -->
<!-- 宅配依頼一覧画面 -->
<g id="node4" class="node">
<title>宅配依頼一覧画面</title>
<ellipse fill="none" stroke="#000000" cx="123" cy="-178" rx="106.5784" ry="18"/>
<text text-anchor="middle" x="123" y="-173.8" font-family="Times,serif" font-size="14.00" fill="#000000">宅配依頼一覧画面</text>
</g>
<!-- 宅配依頼画面&#45;&gt;宅配依頼一覧画面 -->
<!-- お気に入り画面 -->
<g id="node5" class="node">
<title>お気に入り画面</title>
<ellipse fill="none" stroke="#000000" cx="123" cy="-106" rx="76.9003" ry="18"/>
<text text-anchor="middle" x="123" y="-101.8" font-family="Times,serif" font-size="14.00" fill="#000000">お気に入り画面</text>
</g>
<!-- 宅配依頼一覧画面&#45;&gt;お気に入り画面 -->
<!-- 利用者ログアウト画面 -->
<g id="node6" class="node">
<title>利用者ログアウト画面</title>
<ellipse fill="none" stroke="#000000" cx="123" cy="-34" rx="104.9025" ry="18"/>
<text text-anchor="middle" x="123" y="-29.8" font-family="Times,serif" font-size="14.00" fill="#000000">利用者ログアウト画面</text>
</g>
<!-- お気に入り画面&#45;&gt;利用者ログアウト画面 -->
<!-- 利用者会員登録画面 -->
<g id="node7" class="node">
<title>利用者会員登録画面</title>
<ellipse fill="none" stroke="#000000" cx="354" cy="-394" rx="108.0161" ry="18"/>
<text text-anchor="middle" x="354" y="-389.8" font-family="Times,serif" font-size="14.00" fill="#000000">利用者会員登録画面</text>
</g>
<!-- 利用者ログイン画面 -->
<g id="node8" class="node">
<title>利用者ログイン画面</title>
<ellipse fill="none" stroke="#000000" cx="354" cy="-322" rx="94.484" ry="18"/>
<text text-anchor="middle" x="354" y="-317.8" font-family="Times,serif" font-size="14.00" fill="#000000">利用者ログイン画面</text>
</g>
<!-- 利用者会員登録画面&#45;&gt;利用者ログイン画面 -->
<g id="edge6" class="edge">
<title>利用者会員登録画面-&gt;利用者ログイン画面</title>
<path fill="none" stroke="#000000" d="M348.0476,-375.8314C347.2972,-368.131 347.0763,-358.9743 347.3849,-350.4166"/>
<polygon fill="#000000" stroke="#000000" points="350.8792,-350.6161 348.024,-340.4133 343.8935,-350.1697 350.8792,-350.6161"/>
</g>
<!-- 利用者ログイン画面&#45;&gt;利用者会員登録画面 -->
<g id="edge8" class="edge">
<title>利用者ログイン画面-&gt;利用者会員登録画面</title>
<path fill="none" stroke="#000000" d="M359.976,-340.4133C360.7071,-348.0593 360.9203,-357.1084 360.6155,-365.5726"/>
<polygon fill="#000000" stroke="#000000" points="357.1048,-365.6264 359.9524,-375.8314 364.0902,-366.078 357.1048,-365.6264"/>
</g>
<!-- 利用者TOP -->
<g id="node9" class="node">
<title>利用者TOP</title>
<ellipse fill="none" stroke="#000000" cx="354" cy="-250" rx="56.4533" ry="18"/>
<text text-anchor="middle" x="354" y="-245.8" font-family="Times,serif" font-size="14.00" fill="#000000">利用者TOP</text>
</g>
<!-- 利用者ログイン画面&#45;&gt;利用者TOP -->
<g id="edge7" class="edge">
<title>利用者ログイン画面-&gt;利用者TOP</title>
<path fill="none" stroke="#000000" d="M354,-303.8314C354,-296.131 354,-286.9743 354,-278.4166"/>
<polygon fill="#000000" stroke="#000000" points="357.5001,-278.4132 354,-268.4133 350.5001,-278.4133 357.5001,-278.4132"/>
</g>
<!-- サイドバー -->
<g id="node10" class="node">
<title>サイドバー</title>
<ellipse fill="none" stroke="#000000" cx="329" cy="-178" rx="54.8817" ry="18"/>
<text text-anchor="middle" x="329" y="-173.8" font-family="Times,serif" font-size="14.00" fill="#000000">サイドバー</text>
</g>
<!-- 利用者TOP&#45;&gt;サイドバー -->
<g id="edge9" class="edge">
<title>利用者TOP-&gt;サイドバー</title>
<path fill="none" stroke="#000000" d="M347.6914,-231.8314C344.9169,-223.8406 341.5979,-214.2819 338.5317,-205.4514"/>
<polygon fill="#000000" stroke="#000000" points="341.8065,-204.2121 335.2199,-195.9134 335.1938,-206.5082 341.8065,-204.2121"/>
</g>
<!-- 利用者退会画面 -->
<g id="node11" class="node">
<title>利用者退会画面</title>
<ellipse fill="none" stroke="#000000" cx="508" cy="-178" rx="88.2869" ry="18"/>
<text text-anchor="middle" x="508" y="-173.8" font-family="Times,serif" font-size="14.00" fill="#000000">利用者退会画面</text>
</g>
<!-- 利用者TOP&#45;&gt;利用者退会画面 -->
<g id="edge10" class="edge">
<title>利用者TOP-&gt;利用者退会画面</title>
<path fill="none" stroke="#000000" d="M385.9089,-235.0816C408.3295,-224.5992 438.6252,-210.435 463.4284,-198.8387"/>
<polygon fill="#000000" stroke="#000000" points="465.0611,-201.939 472.6376,-194.5331 462.0964,-195.5978 465.0611,-201.939"/>
</g>
<!-- サイドバー&#45;&gt;サイドバー -->
<g id="edge11" class="edge">
<title>サイドバー-&gt;サイドバー</title>
<path fill="none" stroke="#000000" d="M366.9036,-191.1366C385.4679,-192.8554 401.9408,-188.4766 401.9408,-178 401.9408,-169.4878 391.0661,-165.001 377.0306,-164.5397"/>
<polygon fill="#000000" stroke="#000000" points="376.7866,-161.0456 366.9036,-164.8634 377.0103,-168.042 376.7866,-161.0456"/>
</g>
</g>
</svg>